<?xml version="1.0" encoding="UTF-8" standalone="no"?>
<!-- Created with Inkscape (http://www.inkscape.org/) -->

<svg
   version="1.1"
   id="svg1"
   width="192.74181"
   height="42.21349"
   viewBox="0 0 192.7418 42.21349"
   xmlns="http://www.w3.org/2000/svg"
   xmlns:svg="http://www.w3.org/2000/svg">
  <defs
     id="defs1" />
  <g
     id="g1"
     transform="translate(-468.73083,-379.74354)">
    <g
       id="g2">
      <path
         id="path2"
         d="m 369.25049,282.80273 c -0.90137,0.26758 -1.15918,0.23731 -1.66406,1.23243 -0.50538,0.99609 -0.53174,5.375 -0.646,10.46289 -0.12256,5.458 0.26709,11.77099 0.646,12.65918 0.18359,0.43066 0.4541,0.93457 1.92285,0.60547 -5.99414,2.01855 -12.23145,1.56543 -14.13819,0.14209 1.17188,0.083 1.72608,-0.24903 1.79786,-0.74708 0.0879,-0.5996 0.85205,-7.34814 0.85205,-11.20849 0,-3.86035 -0.47071,-11.08399 -0.85205,-11.87207 -0.37989,-0.78906 -0.85889,-1.06836 -1.7295,-1.24317 -2.06543,-0.41601 16.26807,-0.75976 13.81104,-0.0312 z"
         style="fill:#1b65b9;fill-opacity:1;fill-rule:nonzero;stroke:none"
         transform="matrix(1.3333333,0,0,-1.3333333,0,793.70052)" />
      <path
         id="path3"
         d="m 468.31348,282.20313 c 1.59277,0.0303 9.09863,-0.26954 7.208,0.0996 -1.8916,0.36915 -1.7207,1.4668 -1.7207,1.4668 0,0 -0.43066,0.80078 -0.43066,11.05762 0,10.25781 0.43066,11.75683 0.43066,11.75683 0,0 -0.0195,0.82618 1.70117,1.11915 1.72071,0.29248 -5.42968,0.88037 -6.51757,1.16503 -3.44141,0.89991 -8.1504,-0.99951 -6.86524,-0.73193 1.28516,0.26709 1.26367,-0.70508 1.26367,-0.70508 0,0 0.49219,-2.71679 0.49219,-11.05859 0,-8.34229 -0.49219,-12.20459 -0.49219,-12.20459 0,0 -0.0586,-1.35938 -1.92578,-1.66113 -1.7373,-0.28223 3.89258,-0.36231 6.85645,-0.30371 z"
         style="fill:#1b65b9;fill-opacity:1;fill-rule:nonzero;stroke:none"
         transform="matrix(1.3333333,0,0,-1.3333333,0,793.70052)" />
      <path
         id="path4"
         d="m 446.49414,281.13086 c 2.10254,-0.72852 6.22559,-0.91016 6.66699,0.55176 -1.13672,-0.42285 -1.12402,0.92871 -1.12402,0.92871 0,0 -0.5,4.4375 -0.5,11.44336 0,7.00635 0.5,12.52734 0.5,12.52734 0,0 -0.14844,0.82129 1.44238,1.04883 1.44922,0.24707 -5.28418,0.84326 -6.58496,1.35352 -3.08008,1.21044 -7.87109,-1.09717 -6.60547,-0.87891 1.26563,0.21826 1.33203,-0.36035 1.33203,-0.36035 0,0 0.375,-6.2583 0.375,-12.42383 0,-6.16406 -0.375,-11.69824 -0.375,-11.69824 0,0 -0.0879,-1.03418 -1.87304,-1.55664 -1.78321,-0.52051 3.99609,-0.10157 6.74609,-0.93555 z"
         style="fill:#1b65b9;fill-opacity:1;fill-rule:nonzero;stroke:none"
         transform="matrix(1.3333333,0,0,-1.3333333,0,793.70052)" />
      <path
         id="path5"
         d="m 427.11426,281.02734 c 2.75586,-0.61328 7.11621,0.78321 6.21387,0.5 -1.03321,-0.32519 -1.88965,0.78321 -1.88965,0.78321 0,0 -6.18457,6.15234 -11.96289,12.5166 -5.78028,6.36523 -8.1626,9.73193 -10.04151,12.16211 -0.3999,0.51611 -0.1875,0.61474 0.28955,0.84521 0.47852,0.22949 -5.3872,0.68848 -6.95605,1.03369 -5.21338,1.14649 -6.3291,-0.60449 -6.3291,-0.60449 0,0 1.11865,0.34229 1.78808,-0.41894 1.81934,-2.07178 5.3169,-5.21094 11.95264,-12.60547 6.63525,-7.39453 10.31006,-12.29785 10.31006,-12.29785 0,0 0.80029,-0.6543 -0.58643,-1.00879 -1.23828,-0.31543 5.08252,-0.29785 7.21143,-0.90528 z"
         style="fill:#1b65b9;fill-opacity:1;fill-rule:nonzero;stroke:none"
         transform="matrix(1.3333333,0,0,-1.3333333,0,793.70052)" />
      <path
         id="path6"
         d="m 352.3916,309.20801 c -0.73291,-0.23194 -1.04834,-0.82178 -0.7041,-1.31592 0.34521,-0.49414 1.21875,-0.70605 1.95313,-0.47363 4.20996,1.33252 11.29052,1.32519 18.03857,-0.0205 4.58691,-0.91406 10.70215,-1.06348 15.51269,-0.4458 0.33741,0.0356 0.60401,-0.0972 0.60401,-0.35108 0,-0.25293 0,-5.26074 0,-5.26074 0,-0.54638 0.65723,-0.98926 1.46826,-0.98926 0.81055,0 1.4668,0.44288 1.4668,0.98926 v 6.97315 c 0,0.31494 -0.22217,0.61035 -0.59912,0.79638 -0.37793,0.18653 -0.86426,0.24073 -1.31006,0.14551 -4.44287,-0.94482 -11.45557,-0.92822 -16.31006,0.0395 -7.39697,1.47412 -15.29541,1.43994 -20.12012,-0.0869 z"
         style="fill:#1b65b9;fill-opacity:1;fill-rule:nonzero;stroke:none"
         transform="matrix(1.3333333,0,0,-1.3333333,0,793.70052)" />
      <path
         id="path7"
         d="m 394.60889,281.90234 c -0.7461,-0.21289 -1.09424,-0.79394 -0.77784,-1.29687 0.31592,-0.50195 1.17774,-0.73633 1.92432,-0.52344 1.92285,0.54883 4.30664,0.55371 6.07422,0.0117 2.24512,-0.69141 6.45508,-1.22168 8.84619,0.14453 0.61865,0.35352 0.69385,0.97656 0.16846,1.39258 -0.52344,0.41699 -1.4502,0.46875 -2.06787,0.11523 -1.08301,-0.61914 -3.88867,-0.41992 -5.72901,0.14454 -2.51904,0.77539 -5.75244,0.77929 -8.43847,0.0117 z"
         style="fill:#1b65b9;fill-opacity:1;fill-rule:nonzero;stroke:none"
         transform="matrix(1.3333333,0,0,-1.3333333,0,793.70052)" />
      <path
         id="path8"
         d="m 419.67383,281.90234 c -0.7461,-0.21289 -1.09375,-0.79394 -0.77783,-1.29687 0.31591,-0.50195 1.17773,-0.73633 1.92431,-0.52344 1.92383,0.54883 4.30664,0.55371 6.07422,0.0117 2.24512,-0.69141 6.45508,-1.22168 8.8457,0.14453 0.61817,0.35352 0.69336,0.97656 0.16993,1.39258 -0.52539,0.41699 -1.45118,0.46875 -2.06934,0.11523 -1.08301,-0.61914 -3.88769,-0.41992 -5.72852,0.14454 -2.51855,0.77539 -5.75292,0.77929 -8.43847,0.0117 z"
         style="fill:#1b65b9;fill-opacity:1;fill-rule:nonzero;stroke:none"
         transform="matrix(1.3333333,0,0,-1.3333333,0,793.70052)" />
      <path
         id="path9"
         d="m 394.60889,309.89453 c -0.7461,-0.21289 -1.09424,-0.79346 -0.77784,-1.29639 0.31592,-0.50244 1.17774,-0.7373 1.92432,-0.52343 1.92285,0.54931 4.30664,0.55371 6.07422,0.0107 2.24512,-0.69092 6.45508,-1.22168 8.84619,0.14502 0.61865,0.35303 0.69385,0.97754 0.16846,1.39355 -0.52344,0.41651 -1.4502,0.46778 -2.06787,0.11475 -1.08301,-0.61914 -3.88867,-0.4209 -5.72901,0.14453 -2.51904,0.77539 -5.75244,0.7793 -8.43847,0.0112 z"
         style="fill:#1b65b9;fill-opacity:1;fill-rule:nonzero;stroke:none"
         transform="matrix(1.3333333,0,0,-1.3333333,0,793.70052)" />
      <path
         id="path10"
         d="m 419.67383,309.89453 c -0.7461,-0.21289 -1.09375,-0.79346 -0.77783,-1.29639 0.31591,-0.50244 1.17773,-0.7373 1.92431,-0.52343 1.92383,0.54931 4.30664,0.55371 6.07422,0.0107 2.24512,-0.69092 6.45508,-1.22168 8.8457,0.14502 0.61817,0.35303 0.69336,0.97754 0.16993,1.39355 -0.52539,0.41651 -1.45118,0.46778 -2.06934,0.11475 -1.08301,-0.61914 -3.88769,-0.4209 -5.72852,0.14453 -2.51855,0.77539 -5.75292,0.7793 -8.43847,0.0112 z"
         style="fill:#1b65b9;fill-opacity:1;fill-rule:nonzero;stroke:none"
         transform="matrix(1.3333333,0,0,-1.3333333,0,793.70052)" />
      <path
         id="path11"
         d="m 439.06348,281.90234 c -0.7461,-0.21289 -1.09473,-0.79394 -0.77735,-1.29687 0.31543,-0.50195 1.17871,-0.73633 1.92383,-0.52344 1.92285,0.54883 4.30762,0.55371 6.07422,0.0107 2.24609,-0.69043 6.45508,-1.2207 8.8457,0.14551 0.61817,0.35352 0.69434,0.97656 0.16992,1.39258 -0.52441,0.41699 -1.45019,0.46875 -2.06835,0.11523 -1.08301,-0.61914 -3.88868,-0.41992 -5.7295,0.14454 -2.51953,0.77539 -5.75195,0.77929 -8.43847,0.0117 z"
         style="fill:#1b65b9;fill-opacity:1;fill-rule:nonzero;stroke:none"
         transform="matrix(1.3333333,0,0,-1.3333333,0,793.70052)" />
      <path
         id="path12"
         d="m 439.06348,309.89453 c -0.7461,-0.21289 -1.09473,-0.79346 -0.77735,-1.29639 0.31543,-0.50244 1.17871,-0.7373 1.92383,-0.52343 1.92285,0.54931 4.30762,0.55371 6.07422,0.0107 2.24609,-0.69092 6.45508,-1.22168 8.8457,0.14502 0.61817,0.35303 0.69434,0.97754 0.16992,1.39355 -0.52441,0.41651 -1.45019,0.46778 -2.06835,0.11475 -1.08301,-0.61914 -3.88868,-0.4209 -5.7295,0.14502 -2.51953,0.7749 -5.75195,0.77881 -8.43847,0.0107 z"
         style="fill:#1b65b9;fill-opacity:1;fill-rule:nonzero;stroke:none"
         transform="matrix(1.3333333,0,0,-1.3333333,0,793.70052)" />
      <path
         id="path13"
         d="m 460.79102,309.89453 c -0.7461,-0.21289 -1.09375,-0.79346 -0.77735,-1.29639 0.31641,-0.50244 1.17774,-0.7373 1.92383,-0.52343 1.92383,0.54931 4.30762,0.55371 6.07422,0.0107 2.24609,-0.69092 6.45508,-1.22168 8.84766,0.14502 0.61718,0.35303 0.69238,0.97754 0.16894,1.39355 -0.52441,0.41651 -1.45215,0.46778 -2.06934,0.11475 -1.08203,-0.61914 -3.88671,-0.4209 -5.72851,0.14502 -2.51856,0.7749 -5.75293,0.77881 -8.43945,0.0107 z"
         style="fill:#1b65b9;fill-opacity:1;fill-rule:nonzero;stroke:none"
         transform="matrix(1.3333333,0,0,-1.3333333,0,793.70052)" />
      <path
         id="path14"
         d="m 388.99072,288.27344 c 0,0 0,-5.12891 0,-6.08985 0,-0.19726 -0.26953,-0.34668 -0.41064,-0.3789 -4.09278,-0.91602 -11.56201,-1.00977 -16.31787,0.33008 -6.27198,1.7666 -14.06543,1.76171 -19.8545,-0.0137 -0.7373,-0.22461 -1.06298,-0.81152 -0.72753,-1.30859 0.33545,-0.49707 1.20654,-0.7168 1.94336,-0.49023 5.00244,1.5332 12.03759,1.52832 17.50683,-0.0117 6.13623,-1.72852 15.60498,-1.41309 19.97217,0.0234 0.50391,0.16602 0.82324,0.51075 0.82324,0.88868 v 7.05078 c 0,0.54687 -0.65625,0.98828 -1.4668,0.98828 -0.81103,0 -1.46826,-0.44141 -1.46826,-0.98828 z"
         style="fill:#1b65b9;fill-opacity:1;fill-rule:nonzero;stroke:none"
         transform="matrix(1.3333333,0,0,-1.3333333,0,793.70052)" />
      <path
         id="path15"
         d="m 493.16895,289.34961 c 0,0 0,-6.11816 0,-7.06641 0.0615,-0.61718 -0.85059,-0.92382 -1.32911,-1.01172 -3.96484,-0.71484 -10.23828,-0.69628 -14.35156,0.5293 -5.96777,1.77735 -13.38476,1.77344 -18.89453,-0.0137 -0.73047,-0.23633 -1.03711,-0.82617 -0.68555,-1.31836 0.35157,-0.49316 1.22852,-0.69922 1.95801,-0.46289 4.69531,1.52148 11.29981,1.51562 16.43457,-0.0137 5.83789,-1.73828 14.85156,-1.41992 19.00977,0.0264 l 0.79394,0.27637 v 9.05469 c 0,0.5459 -0.65722,0.98828 -1.46875,0.98828 -0.80957,0 -1.46679,-0.44238 -1.46679,-0.98828 z"
         style="fill:#1b65b9;fill-opacity:1;fill-rule:nonzero;stroke:none"
         transform="matrix(1.3333333,0,0,-1.3333333,0,793.70052)" />
      <path
         id="path16"
         d="m 378.32568,295.98047 c -0.58642,-0.0186 -4.11474,-0.0889 -4.46728,-0.0918 -1.66846,-0.0156 -5.69776,0.0918 -6.08496,0.0918 -0.38819,0 -0.68213,0.0977 -0.89356,0.47754 -0.16504,0.29687 -1.10351,-1.08301 -1.10351,-1.46582 0,-0.3877 1.17334,-1.7627 1.17334,-1.38281 0,0.2539 0.39258,0.3496 0.96386,0.39453 0.61084,0.0488 4.91114,0.0957 6.83789,0.0957 1.59961,0 3.31543,-0.0625 3.62159,-0.0957 0.4873,-0.0527 1.05664,-0.0147 1.12793,-0.41016 0.0786,-0.44336 2.91113,0.85156 2.91113,1.39844 0,0.54687 -2.854,1.91748 -2.91113,1.52929 -0.0474,-0.3164 -0.1416,-0.50683 -1.1753,-0.54101 z"
         style="fill:#1b65b9;fill-opacity:1;fill-rule:nonzero;stroke:none"
         transform="matrix(1.3333333,0,0,-1.3333333,0,793.70052)" />
      <path
         id="path17"
         d="m 379.47559,298.45313 v -7.00391 c 0,-0.54688 0.65771,-0.98926 1.46777,-0.98926 0.81103,0 1.46875,0.44238 1.46875,0.98926 v 7.00391 c 0,0.54589 -0.65772,0.98876 -1.46875,0.98876 -0.81006,0 -1.46777,-0.44287 -1.46777,-0.98876 z"
         style="fill:#1b65b9;fill-opacity:1;fill-rule:nonzero;stroke:none"
         transform="matrix(1.3333333,0,0,-1.3333333,0,793.70052)" />
      <path
         id="path18"
         d="m 423.41992,308.4917 c 1.68457,0.0688 0.97071,-0.91406 0.97071,-0.91406 l -21.88477,-24.59717 c 0,0 -0.49854,-0.69922 -2.05078,-0.60352 -1.55225,0.0977 0.54687,-1.94726 1.24219,-2.22851 0.6958,-0.2793 5.94287,1.00976 4.47753,1.22265 -1.4663,0.21289 -0.84814,0.93555 -0.84814,0.93555 l 21.76514,24.46045 c 0,0 0.76562,0.93652 2.56543,0.75098 1.80078,-0.18555 -0.87403,2.01123 -1.56934,2.29199 -0.69531,0.28125 -6.354,-1.38818 -4.66797,-1.31836 z"
         style="fill:#1b65b9;fill-opacity:1;fill-rule:nonzero;stroke:none"
         transform="matrix(1.3333333,0,0,-1.3333333,0,793.70052)" />
    </g>
  </g>
</svg>
